# xmcd CD database file
#
# Track frame offsets:
#	150
#	28096
#	35508
#	72589
#	111560
#	149586
#	187859
#	193935
#	209926
#	246630
#	261717
#
# Disc length: 3786 seconds
#
# Revision: 0
# Processed by: cddbd v1.5.2PL0 Copyright (c) Steve Scherf et al.
# Submitted via: CDex 1.70beta2
#
DISCID=c60ec80b
DTITLE=Lisbeth Quartett - There Is Only Make
DYEAR=2017
DGENRE=Jazz
TTITLE0=5.3
TTITLE1=Bend
TTITLE2=Shirley
TTITLE3=Piece
TTITLE4=Echo and Skill
TTITLE5=Original Source Part 1
TTITLE6=Leap
TTITLE7=Dealy Task
TTITLE8=We Alter and Repair
TTITLE9=Original Source Part 2
TTITLE10=Crickets
EXTD=YEAR: 2017
EXTT0=
EXTT1=
EXTT2=
EXTT3=
EXTT4=
EXTT5=
EXTT6=
EXTT7=
EXTT8=
EXTT9=
EXTT10=
PLAYORDER=
